<?xml version="1.0" standalone="no"?><!DOCTYPE svg PUBLIC "-//W3C//DTD SVG 1.1//EN" "http://www.w3.org/Graphics/SVG/1.1/DTD/svg11.dtd"><svg width="100%" height="100%" viewBox="0 0 364 48" version="1.1" xmlns="http://www.w3.org/2000/svg" xmlns:xlink="http://www.w3.org/1999/xlink" xml:space="preserve" style="fill-rule:evenodd;clip-rule:evenodd;stroke-miterlimit:1.41421;"><g id="Logo"><path id="path5" d="M32.172,9.395l-21.969,0l0,9.32l18.419,0l-8.321,8.321l-10.098,0l0,10.119l21.969,0l0,8.322l-31.422,0l0,-44.404l31.422,0l0,8.322Z" style="fill:#435676;stroke-width:1.5px;stroke:#5ba4ff;stroke-opacity:0.498039;"/><path id="path7" d="M48.682,37.155l10.452,0l8.321,8.322l-28.293,0l0,-44.404l9.52,0l0,36.082Z" style="fill:#fff;stroke-width:1.5px;stroke:#2e435f;stroke-opacity:0.498039;"/><path id="path9" d="M105.268,9.395l-21.969,0l0,9.32l18.45,0l-8.321,8.321l-10.129,0l0,10.119l21.969,0l0,8.322l-31.422,0l0,-44.404l31.422,0l0,8.322Z" style="fill:#fff;stroke-width:1.5px;stroke:#2e435f;stroke-opacity:0.498039;"/><path id="path11" d="M122.111,45.477l-9.453,0l0,-44.404l9.453,0l0,19.772l15.711,-19.772l7.899,0l0,4.431l-13.891,16.406l18.84,23.567l-11.65,0l-13.448,-17.841l-3.461,4.194l0,13.647Z" style="fill:#fff;stroke-width:1.5px;stroke:#2e435f;stroke-opacity:0.498039;"/><path id="path13" d="M187.585,1.073l-4.322,8.322l-8.494,0l0,36.082l-9.52,0l0,-36.082l-12.981,0l0,-8.322l35.317,0Z" style="fill:#fff;stroke-width:1.5px;stroke:#2e435f;stroke-opacity:0.498039;"/><path id="path15" d="M229.758,45.477l-10.918,0l-8.721,-15.778l-6.924,0l0,15.778l-9.453,0l0,-44.404l20.771,0c4.571,0 8.21,1.332 10.917,3.995c2.708,2.662 4.061,6.102 4.061,10.318c0,3.64 -0.965,6.591 -2.896,8.854c-1.93,2.264 -4.227,3.706 -6.89,4.328l10.053,16.909ZM213.181,21.378c1.909,0 3.484,-0.544 4.727,-1.631c1.242,-1.088 1.864,-2.563 1.864,-4.427c0,-1.776 -0.622,-3.207 -1.864,-4.294c-1.243,-1.088 -2.818,-1.631 -4.727,-1.631l-9.986,0l0,11.983l9.986,0Z" style="fill:#fff;fill-rule:nonzero;stroke-width:1.5px;stroke:#2e435f;stroke-opacity:0.498039;"/><path id="path17" d="M277.244,12.35c1.748,3.253 2.62,6.975 2.62,11.163c0,4.571 -1.04,8.587 -3.123,12.052l-9.213,-2.903c1.804,-2.511 2.703,-5.563 2.703,-9.149c0,-3.226 -0.728,-6.019 -2.191,-8.375l9.204,-2.788Z" style="fill:#fff;stroke-width:1.5px;stroke:#2e435f;stroke-opacity:0.498039;"/><path id="path19" d="M275.318,38.312c-0.437,0.526 -0.907,1.036 -1.408,1.531c-4.334,4.288 -9.821,6.433 -16.464,6.433c-6.686,0 -12.195,-2.134 -16.529,-6.4c-4.333,-4.267 -6.499,-9.721 -6.499,-16.363c0,-6.642 2.166,-12.097 6.499,-16.363c4.334,-4.267 9.843,-6.4 16.529,-6.4c6.643,0 12.13,2.145 16.464,6.433c0.757,0.75 1.448,1.533 2.065,2.35l-9.566,2.898c-2.342,-2.245 -5.33,-3.368 -8.963,-3.368c-4.047,0 -7.291,1.364 -9.732,4.092c-2.441,2.726 -3.663,6.179 -3.663,10.358c0,4.179 1.232,7.631 3.696,10.359c2.464,2.727 5.697,4.091 9.699,4.091c3.251,0 5.988,-0.9 8.206,-2.697l9.666,3.046Z" style="fill:#435676;stroke-width:1.5px;stroke:#5ba4ff;stroke-opacity:0.498039;"/><path id="path21" d="M323.219,45.477l-9.12,0l-17.17,-26.959l0,26.959l-9.453,0l0,-44.404l9.719,0l16.571,25.894l0,-25.894l9.453,0l0,44.404Z" style="fill:#435676;fill-rule:nonzero;stroke-width:1.5px;stroke:#5ba4ff;stroke-opacity:0.498039;"/><path id="path21-0" d="M363.074,45.475l-9.12,0l-17.17,-26.959l0,26.959l-9.453,0l0,-44.404l9.719,0l16.571,25.894l0,-25.894l9.453,0l0,44.404Z" style="fill:#435676;fill-rule:nonzero;stroke-width:1.5px;stroke:#5ba4ff;stroke-opacity:0.498039;"/></g></svg>