<?xml version="1.0" encoding="UTF-8" standalone="no"?>
<!DOCTYPE svg PUBLIC "-//W3C//DTD SVG 1.1//EN" "http://www.w3.org/Graphics/SVG/1.1/DTD/svg11.dtd">
<svg width="100%" height="100%" viewBox="0 0 64 64" version="1.1" xmlns="http://www.w3.org/2000/svg" xmlns:xlink="http://www.w3.org/1999/xlink" xml:space="preserve" style="fill-rule:evenodd;clip-rule:evenodd;stroke-linejoin:round;stroke-miterlimit:1.41421;">
    <g>
        <path id="_49116176" d="M0.893,32C0.893,14.849 14.847,0.893 32,0.893C49.149,0.893 63.102,14.849 63.102,32C63.102,49.155 49.149,63.107 32,63.107C14.847,63.107 0.893,49.155 0.893,32ZM0,32C0,49.647 14.356,64 32,64C49.644,64 64,49.647 64,32C64,14.354 49.644,0 32,0C14.356,0 0,14.354 0,32Z" style="fill:rgb(21,130,117);fill-rule:nonzero;"/>
        <path id="_48873840" d="M53.023,37.205C52.149,38.016 50.915,38.028 49.916,38.687C49.46,39.143 49.574,39.667 49.761,40.244C50.131,40.973 49.99,40.899 49.476,41.071C48.271,41.472 48.283,42.792 46.831,42.573C46.749,42.596 46.41,42.425 46.613,42.671C46.769,42.854 46.831,42.745 47.139,42.78C47.655,42.806 47.85,42.592 48.212,42.346C48.727,41.91 48.664,41.746 49.304,41.441C49.456,41.402 49.831,41.294 50.041,41.368C50.182,41.496 50.186,41.5 50.209,41.617C50.127,41.972 49.613,42.265 49.413,42.385C49.687,42.585 50.194,42.921 50.108,43.201C49.99,43.388 49.998,43.42 49.796,43.517C49.507,43.657 48.934,43.634 48.391,43.232C48.309,43.259 48.22,43.076 47.99,43.295C48.516,43.838 49.254,43.715 49.363,43.825C49.476,43.934 48.969,44.589 48.95,44.73C48.594,45.671 49.028,46.537 48.84,47.515C48.723,48.277 48.492,48.64 47.826,49.124C46.597,49.974 45.735,50.22 44.362,50.442C40.749,50.688 38.471,49.447 35.873,47.504C33.271,45.561 32.276,44.531 31.465,43.439C31.453,42.99 31.781,42.651 31.5,42.167C31.266,42.249 31.289,42.557 31.148,42.732C30.946,43.017 30.466,43.224 30.123,43.189C29.054,42.826 28.996,41.57 28.324,40.851C26.893,39.439 26.491,37.403 27.256,35.698C27.524,35.171 28.009,34.664 28.551,34.476C29.218,34.372 30.006,34.372 30.442,35.019C30.958,35.511 31.277,36.31 31.406,37.016C31.617,37.356 31.36,37.746 31.711,38.027C32.323,38.086 32.849,38.238 33.438,37.863C33.876,37.922 33.934,38.406 34.265,38.616L34.85,38.968C35.475,39.224 36.278,39.224 36.804,38.768C37.792,37.758 37.578,36.717 37.917,35.6C38.861,34.766 39.485,33.571 39.473,32.405C39.415,31.688 39.158,30.946 38.732,30.231C38.802,29.807 39.04,29.49 39.176,29.112C39.297,29.042 39.45,29.042 39.579,29.019C40.628,28.796 41.58,27.845 41.99,26.841L42.083,26.748C43.285,26.666 44.779,26.24 45.469,24.985C45.614,24.443 46.222,24.844 46.6,24.715C47.237,24.68 47.871,24.325 48.352,23.915C48.491,23.868 48.598,24.021 48.683,24.091C48.964,25.031 49.479,25.937 49.776,26.893C50.138,27.607 50.271,28.289 50.138,29.019C50.29,30.135 50.931,31.184 51.375,32.312C51.82,33.501 52.514,34.699 53.021,35.924C53.115,36.416 53.326,36.807 53.023,37.205ZM53.268,35.152C52.421,33.198 51.47,31.52 50.776,29.554C50.28,28.848 50.565,28.099 50.502,27.342C50.186,26.167 49.691,25.262 49.223,24.119C49.09,23.791 49.456,23.698 49.585,23.463C49.796,22.886 49.648,22.239 49.387,21.684C49.282,21.368 49.659,21.146 49.585,20.819C49.574,20.311 49.129,19.968 48.775,19.699C48.243,18.934 47.997,18.532 47.338,17.841L47.338,17.709C47.67,17.416 47.94,16.909 47.932,16.476C47.799,15.985 47.694,15.524 47.221,15.181C46.468,14.759 45.704,15.418 45.107,15.758C44.94,15.875 44.858,15.993 44.623,15.973C44.471,15.918 44.315,15.86 44.151,15.801C43.999,15.977 43.808,16.165 43.578,16.348L44.307,16.644C44.331,16.664 44.342,16.679 44.342,16.707C44.342,16.718 44.334,16.742 44.334,16.761C44.284,16.804 42.642,18.244 42.642,18.244C42.638,18.247 39.684,21.162 39.684,21.162C39.684,21.166 38.842,22.025 38.842,22.025C38.835,22.029 36.213,25.052 36.213,25.052C34.84,26.644 32.811,29.254 31.594,31.165C30.958,32.039 30.326,33.011 29.737,33.932C29.675,34.033 29.554,34.025 29.362,34.002C29.234,33.986 29.098,33.975 28.98,34.014L28.984,34.014L28.957,34.021C28.965,34.018 28.973,34.018 28.98,34.014C28.313,34.088 27.825,34.311 27.307,34.778C26.636,35.574 26.296,36.534 26.296,37.572C26.296,38.286 26.456,39.039 26.784,39.792C26.647,40.197 26.332,40.553 26.047,40.869L25.887,41.044L25.684,41.247C25.556,41.368 25.403,41.512 25.298,41.648L25.286,41.661L25.278,41.679C25.267,41.723 25.259,41.804 25.392,41.867L25.423,41.886L25.458,41.879C26.078,41.73 26.468,41.262 26.847,40.81C26.847,40.81 27.084,40.537 27.119,40.494C27.178,40.486 27.225,40.517 27.303,40.588C27.346,40.623 27.396,40.654 27.451,40.681C27.451,40.697 27.451,40.713 27.451,40.713C27.451,40.713 27.443,40.915 27.443,40.962C25.973,42.414 24.774,43.232 23.207,44.153L22.945,44.305L23.25,44.337C23.859,44.399 24.44,44.055 25.001,43.724L25.676,43.353C26.296,43.034 26.874,42.547 27.436,42.078C27.436,42.078 27.938,41.656 27.993,41.61C28.048,41.622 28.106,41.687 28.149,41.742C28.149,41.742 28.185,41.777 28.208,41.801C28.215,41.816 28.676,42.729 28.703,42.784C28.598,43.213 28.555,43.646 28.555,44.079C28.555,45.019 28.758,45.96 28.957,46.877C29.156,47.782 29.358,48.714 29.358,49.631C29.358,49.693 29.358,49.751 29.355,49.81C29.355,50.095 29.047,50.469 28.785,50.59C28.2,50.688 27.486,50.696 26.737,50.704C25.813,50.711 24.857,50.719 24.123,50.918C23.89,50.946 23.616,51.023 23.351,51.097C23.094,51.167 22.824,51.246 22.574,51.277L22.551,51.281L22.52,51.304L22.43,51.367C22.349,51.417 22.243,51.484 22.22,51.605C22.22,51.617 22.216,51.628 22.216,51.64C22.216,51.706 22.247,51.789 22.302,51.838C22.353,51.894 22.415,51.916 22.481,51.914C22.703,51.914 22.953,51.819 23.194,51.734C23.362,51.671 23.538,51.609 23.698,51.581C25.232,51.32 26.908,51.371 28.048,51.464C28.609,51.456 29.53,51.437 29.861,50.637C29.982,50.313 30.025,50.013 30.025,49.724C30.025,49.405 29.975,49.1 29.924,48.784L29.822,48.007C29.757,47.536 29.654,47.064 29.557,46.603C29.386,45.796 29.21,44.961 29.21,44.114C29.21,43.942 29.218,43.77 29.233,43.598C29.249,43.575 29.268,43.552 29.292,43.549C29.339,43.541 29.425,43.611 29.495,43.666C29.572,43.723 29.654,43.786 29.744,43.81C29.846,43.883 29.959,43.907 30.064,43.919C30.213,43.938 30.291,43.958 30.338,44.071C30.399,44.812 30.657,45.581 30.907,46.326C31.079,46.837 31.254,47.364 31.367,47.882C31.57,48.784 31.773,49.701 31.773,50.606C31.773,51.145 31.703,51.679 31.512,52.203C31.122,52.92 30.26,52.92 29.433,52.923L29.183,52.923L27.146,52.799C25.402,52.674 23.597,52.545 21.747,52.842C21.759,52.842 21.334,52.888 21.334,52.888C21.104,52.924 20.89,52.952 20.658,52.896C20.573,52.827 20.503,52.709 20.503,52.58C20.503,52.541 20.511,52.502 20.527,52.463C20.858,51.734 21.022,51.075 21.022,50.49C21.022,50.017 20.912,49.596 20.698,49.221C20.218,48.304 19.692,47.669 19.044,47.224C18.248,46.431 17.57,45.725 16.965,45.039C16.614,44.996 16.399,44.925 16.371,44.918L16.294,44.89L15.943,45.328C16.399,45.76 16.825,46.198 17.339,46.666C18.127,47.091 18.763,47.856 19.328,48.375C20.012,49.17 20.175,50.017 20.03,50.961C19.942,52.078 18.919,52.561 18.225,53.298C17.94,53.828 17.764,54.465 18.151,54.956C18.4,55.616 19.457,55.499 19.586,56.041C19.879,57.235 21.95,57.925 22.356,57.952C22.758,57.981 23.175,58.429 23.175,58.429C23.998,59.03 25.079,58.881 25.648,58.795C26.214,58.709 27.229,59.17 27.868,59.076C28.816,58.697 29.597,58.873 30.583,58.791C33.688,58.838 37.215,58.768 40.39,59.17C40.979,59.1 41.682,59.556 42.236,59.275C42.38,59.037 42.271,58.838 42.236,58.639C40.718,56.251 40.492,53.572 41.354,50.973L41.923,51.004C43.987,51.23 45.86,50.961 47.951,49.751C48.996,49.174 49.546,47.828 49.499,46.849C49.464,46.217 49.245,45.468 49.351,44.797C49.39,44.497 49.585,44.04 49.847,43.9C49.951,43.838 50.338,43.576 50.459,43.24C50.658,42.698 50.233,42.44 50.108,42.366C50.444,42.23 50.764,41.551 50.459,41.02C50.264,40.813 50.033,39.986 50.01,39.718C49.936,39.327 49.925,38.929 50.291,38.68C51.114,38.246 51.891,38.141 52.749,37.763C53.338,37.516 53.643,36.904 53.619,36.353L53.268,35.152ZM19.65,54.543C19.544,54.734 19.556,54.859 19.508,55.085C19.45,55.191 19.157,55.05 19.064,54.992C18.701,54.796 18.724,54.898 18.619,54.558C18.561,54.332 18.565,54.067 18.943,53.868C19.177,53.735 19.65,53.576 19.802,53.868C19.848,54.067 19.614,54.32 19.65,54.543ZM21.654,57.086C21.17,57.098 20.835,56.833 20.613,56.267C20.386,55.541 20.309,54.906 20.464,54.157C20.515,54.067 20.62,54.004 20.691,54.036L21.362,53.805C21.588,53.715 21.776,53.684 21.989,53.735L22.122,53.871C22.114,54.262 22.017,54.55 22.009,54.913C21.97,55.823 21.892,56.096 22.153,56.962C22.056,57.192 21.861,57.082 21.654,57.086ZM49.288,23.257C49.223,23.327 49.141,23.408 49.032,23.381C48.782,23.206 48.875,22.984 48.891,22.773C48.942,22.722 48.95,22.695 49.032,22.695C49.149,22.671 49.214,22.761 49.258,22.824C49.331,22.96 49.344,23.116 49.288,23.257ZM30.209,34.27C31.855,31.317 33.852,28.754 35.994,26.12L38.994,22.71C41.132,20.428 43.496,18.087 46.118,16.277C46.449,16.089 46.593,15.7 46.933,15.973L47.241,16.257C47.448,16.492 47.268,17.159 47.057,17.346C46.885,17.487 46.722,17.62 46.558,17.755C47.069,18.262 47.81,19.227 48.415,19.851C48.68,20.124 48.599,20.409 49.075,20.627C49.313,20.741 49.382,21.001 49.239,21.224C48.817,21.767 48.115,21.684 47.561,21.825C45.501,22.282 43.839,22.87 41.561,23.975C39.74,24.943 38.284,26.011 36.962,27.669C36.459,28.294 35.892,28.766 35.471,29.515C34.27,31.056 33.318,32.504 32.362,34.092C32.023,34.591 31.914,34.841 31.434,35.289C31.204,35.512 30.997,35.051 30.852,34.891C30.838,34.876 30.825,34.851 30.813,34.836C30.767,34.845 30.717,34.833 30.666,34.802C30.537,34.634 30.135,34.563 30.209,34.27ZM48.345,22.866C48.314,23.437 47.553,23.908 46.917,24.084C46.648,24.127 46.398,24.111 46.157,24.111C46.094,24.069 46.024,24.014 46.032,23.951C46.075,23.682 46.118,23.522 46.137,23.281L46.293,23.163C46.855,23.05 47.541,22.929 48.107,22.781C48.189,22.796 48.294,22.788 48.345,22.866ZM42.435,24.353L42.537,24.221C43,24.002 43.426,23.83 43.937,23.686L44.549,23.526C44.713,23.378 44.997,23.257 45.165,23.468C45.173,24.26 44.581,25.215 43.703,25.578C43.426,25.699 43.059,25.738 42.732,25.821C42.65,25.75 42.384,25.899 42.302,25.699C42.353,25.301 42.504,24.708 42.435,24.353ZM36.158,38.426C35.994,38.519 34.57,37.977 34.738,38.126C34.398,37.763 34.953,37.641 33.696,37.17L33.392,37.201C33.353,37.236 33.244,37.295 33.131,37.139C33.119,36.947 33.369,36.974 33.447,36.74C33.895,35.73 33.645,34.946 33.602,33.9L33.934,33.042C34.566,32.285 34.562,32.176 34.991,31.763C35.417,31.162 35.507,31.114 36.08,30.623C36.174,30.541 36.345,30.479 36.459,30.572C36.727,30.783 36.743,30.924 36.821,31.192C36.954,32.191 36.349,32.878 35.62,33.421C35.104,33.865 34.609,34.56 34.722,35.243L34.765,35.285C35.004,35.09 35.3,34.974 35.401,34.727C35.796,33.846 36.856,33.444 37.45,32.679C37.711,32.219 37.55,31.427 37.45,30.897C37.45,30.912 38.229,30.525 38.019,30.662C38.389,30.818 38.342,31.083 38.522,31.423C38.874,32.305 38.842,33.104 38.303,33.869L36.821,35.719C36.798,36.658 37.055,37.872 36.158,38.426ZM38.112,29.476C37.757,29.64 37.391,29.675 36.997,29.491C36.895,29.358 36.571,29.245 36.7,29.047C36.985,28.582 37.468,28.2 37.765,27.743L37.906,27.669C38.506,26.944 39.458,26.331 40.359,25.785L40.902,25.547C41.023,25.43 41.299,25.184 41.405,25.438C41.428,26.386 41.026,27.401 40.122,28.071C39.575,28.477 39.338,28.399 38.849,28.43L38.596,28.883C38.538,29.109 38.339,29.339 38.112,29.476ZM33.123,34.887L33.1,35.559C33.037,36.171 32.757,36.877 32.18,37.216C31.836,37.135 31.96,36.721 31.875,36.44C32.098,35.831 32.522,35.324 32.877,34.782C32.928,34.747 32.974,34.724 33.025,34.747L33.123,34.887ZM24.935,58.206C24.697,58.452 24.561,58.339 24.318,58.363C23.624,58.171 23.218,57.874 23.024,57.09C22.766,55.998 22.777,54.796 23.024,53.677L23.132,53.591C23.62,53.537 24.354,53.439 24.556,53.548C24.756,53.658 24.342,55.623 24.342,55.623C24.326,56.014 24.518,57.013 24.697,57.528C24.733,57.606 25.134,58.003 24.935,58.206ZM29.959,56.992C29.885,57.696 29.004,58.312 28.57,58.437C28.138,58.562 26.851,58.499 26.48,58.37C26.106,58.241 25.2,56.474 25.306,55.557C25.306,54.796 25.512,53.595 25.816,53.497C26.121,53.404 26.924,53.451 26.924,53.451C27.26,53.427 27.518,53.509 27.813,53.544C28.02,53.626 27.876,53.887 27.946,54.039C28.044,54.43 28.067,54.855 28.309,55.245C28.648,55.901 29.268,56.29 29.885,56.521C30.021,56.65 29.944,56.822 29.959,56.992ZM28.969,54.024C28.969,53.883 28.977,53.825 29.082,53.779L29.663,53.778C30.182,53.797 30.845,53.965 31.329,53.466C31.605,53.477 31.629,53.805 31.703,54.063C31.769,54.418 31.754,54.645 31.754,54.964C31.637,55.218 31.508,55.604 31.247,55.768C30.829,55.963 30.408,55.924 30.006,55.768C29.401,55.409 28.961,54.835 28.969,54.024ZM40.875,51.246C40.098,53.942 39.727,55.33 40.941,58.105C40.952,58.21 41.069,58.558 40.941,58.601C39.599,58.331 39.244,58.214 37.983,58.124C36.821,57.921 34.886,58.245 33.596,58.234C32.585,58.269 31.558,58.304 30.502,58.433C30.185,58.269 30.432,57.913 30.455,57.68C30.572,57.317 30.584,57.129 30.618,56.704C30.782,56.529 30.985,56.622 31.184,56.54C31.863,56.435 32.44,55.834 32.604,55.199C32.819,54.532 32.585,53.79 32.276,53.155C32.219,52.967 31.961,52.823 32.066,52.635C32.9,51.071 32.311,49.483 32.031,47.958C31.738,46.873 31.29,45.674 31.11,44.532C31.149,44.415 30.997,44.142 31.255,44.123L31.348,44.142C32.242,45.226 34.801,47.516 35.759,48.261C36.716,49.007 39.193,50.451 40.804,50.836C40.957,50.965 40.933,51.071 40.875,51.246Z" style="fill:rgb(21,130,117);fill-rule:nonzero;"/>
        <path id="_48164760" d="M47.67,27.829C47.834,28.044 47.943,28.232 47.81,28.43C47.506,28.453 47.459,28.068 47.202,27.939C46.777,27.728 46.398,27.95 45.977,28.056C44.909,28.516 44.015,29.433 42.977,29.912C42.848,29.912 42.731,29.901 42.65,29.808C42.825,29.632 43.11,29.597 43.332,29.452C44.401,28.75 45.439,27.646 46.777,27.443C47.131,27.42 47.448,27.549 47.669,27.829L47.67,27.829Z" style="fill:rgb(21,130,117);fill-rule:nonzero;"/>
        <path id="_82784152" d="M47.588,29.644C47.506,29.382 47.518,28.961 47.203,28.902C47.132,29.067 47.203,29.246 47.132,29.398C47.035,29.515 46.87,29.655 46.683,29.608C45.388,29.691 44.424,30.829 43.321,31.419C42.942,31.63 42.521,31.75 42.12,31.855C42.084,31.914 42.095,31.996 42.154,32.031C43.379,32.16 44.588,32.277 45.802,32.405L47.152,32.254C47.191,32.078 46.976,31.926 47.011,31.723C47.167,31.173 47.214,30.572 47.062,30.054C47.167,29.773 47.565,29.983 47.588,29.644ZM46.644,31.73C46.477,31.977 46.215,31.763 45.986,31.794C45.455,31.73 44.561,31.856 43.976,31.781C43.886,31.73 43.824,31.642 43.874,31.56C43.964,31.411 44.21,31.403 44.363,31.29C45.002,30.893 45.673,30.51 46.403,30.338C46.536,30.318 46.645,30.428 46.668,30.522C46.753,30.86 46.7,31.403 46.644,31.73Z" style="fill:rgb(21,130,117);fill-rule:nonzero;"/>
        <path id="_81751608" d="M48.275,35.707C48.314,35.644 48.365,35.574 48.423,35.57C48.497,35.598 48.54,35.633 48.552,35.776C48.54,36.003 48.486,36.241 48.423,36.495C48.353,36.779 48.279,37.076 48.279,37.364C48.279,37.489 48.294,37.618 48.329,37.743C48.497,37.954 48.763,38.005 49.075,37.895C49.082,37.891 49.613,37.587 49.613,37.587C50.073,37.314 50.506,37.053 51.318,36.846C51.333,36.842 51.337,36.85 51.341,36.853C51.357,36.865 51.361,36.896 51.361,36.935C51.361,37.002 51.341,37.099 51.306,37.174C51.275,37.189 50.53,37.521 50.53,37.521C49.945,37.778 49.336,38.044 48.766,38.372C48.598,38.403 48.443,38.313 48.294,38.223L48.255,38.204C48.04,37.907 47.97,37.623 47.97,37.334C47.97,37.076 48.025,36.819 48.083,36.554C48.134,36.308 48.193,36.055 48.204,35.785C48.224,35.765 48.275,35.707 48.275,35.707Z" style="fill:rgb(21,130,117);fill-rule:nonzero;"/>
        <path id="_111035472" d="M29.948,35.465C30.373,36.335 29.925,37.157 29.948,38.062C30.018,38.32 30.525,38.355 30.373,38.664C30.256,38.746 30.088,38.769 29.96,38.676C29.726,38.523 29.643,38.406 29.585,38.133C29.522,37.338 30.159,36.404 29.597,35.651C29.433,35.488 29.195,35.324 28.961,35.312C28.453,35.406 28.196,35.948 28.02,36.347C27.751,37.403 27.677,38.523 28.609,39.37C29.152,39.685 29.808,40.029 29.847,40.712C29.925,40.829 30.088,40.942 30.221,40.876C30.385,40.864 30.408,40.392 30.642,40.618L30.713,40.778C30.654,40.969 30.596,41.297 30.291,41.308C30.14,41.343 29.972,41.261 29.847,41.169C29.516,40.829 29.772,40.31 29.219,40.088C28.302,39.803 27.701,38.839 27.607,37.933C27.549,37.064 27.588,36.112 28.337,35.348C28.633,35.125 29.019,34.98 29.398,35.101C29.608,35.137 29.854,35.285 29.948,35.465Z" style="fill:rgb(21,130,117);fill-rule:nonzero;"/>
        <path id="_111045264" d="M18.451,41.824C16.779,42.6 16.267,44.597 16.244,44.679L16.201,44.859L16.372,44.918C16.439,44.937 17.992,45.448 19.891,44.516C21.803,43.58 22.196,41.683 22.212,41.601L22.251,41.402L22.048,41.372C21.97,41.356 20.098,41.063 18.451,41.824ZM18.619,42.187C19.84,41.617 21.237,41.683 21.764,41.734C21.615,42.217 21.105,43.478 19.715,44.161C18.323,44.843 17.125,44.68 16.688,44.587C16.853,44.102 17.391,42.757 18.619,42.187Z" style="fill:rgb(21,130,117);fill-rule:nonzero;"/>
        <path id="_111057648" d="M20.121,38.067C18.444,38.824 17.824,40.798 17.8,40.884L17.742,41.071L17.929,41.13C17.995,41.149 19.544,41.613 21.447,40.705C23.367,39.783 23.776,37.954 23.792,37.876L23.835,37.677L23.632,37.641C23.558,37.626 21.772,37.321 20.121,38.067ZM20.285,38.426C21.502,37.876 22.832,37.946 23.343,38.001C23.184,38.476 22.664,39.682 21.277,40.345C19.895,41.005 18.705,40.88 18.252,40.798C18.444,40.303 19.056,38.979 20.285,38.426Z" style="fill:rgb(21,130,117);fill-rule:nonzero;"/>
        <path id="_82872168" d="M22.302,34.446C20.62,35.184 19.891,37.142 19.864,37.224L19.789,37.423L19.996,37.482C20.063,37.501 21.608,37.915 23.511,37.025C25.442,36.128 25.863,34.364 25.883,34.286L25.926,34.087L25.727,34.049C25.656,34.036 23.96,33.717 22.302,34.446ZM22.458,34.81C23.675,34.274 24.936,34.349 25.431,34.407C25.267,34.867 24.733,36.022 23.348,36.666C21.979,37.307 20.8,37.216 20.328,37.142C20.555,36.642 21.237,35.348 22.458,34.81Z" style="fill:rgb(21,130,117);fill-rule:nonzero;"/>
        <path id="_111066936" d="M24.463,30.869C22.781,31.59 21.946,33.525 21.916,33.607L21.821,33.822L22.048,33.877C22.114,33.893 23.655,34.263 25.566,33.396C27.506,32.519 27.938,30.818 27.958,30.744L28.009,30.545L27.807,30.502C27.74,30.486 26.133,30.158 24.463,30.869ZM24.619,31.235C25.828,30.721 27.026,30.798 27.502,30.857C27.33,31.306 26.788,32.41 25.403,33.034C24.049,33.65 22.879,33.596 22.392,33.533C22.653,33.022 23.402,31.754 24.619,31.235Z" style="fill:rgb(21,130,117);fill-rule:nonzero;"/>
        <path id="_111358368" d="M27.459,27.291C25.773,27.993 24.834,29.909 24.795,29.991L24.686,30.217L24.932,30.272C24.993,30.283 26.53,30.607 28.45,29.765C30.392,28.906 30.846,27.268 30.865,27.197L30.916,27.002L30.717,26.951C30.654,26.94 29.137,26.597 27.459,27.291ZM27.611,27.657C28.816,27.158 29.944,27.24 30.404,27.303C30.225,27.743 29.675,28.789 28.29,29.401C26.94,29.994 25.785,29.972 25.286,29.921C25.587,29.401 26.397,28.161 27.611,27.657Z" style="fill:rgb(21,130,117);fill-rule:nonzero;"/>
        <path id="_111528120" d="M30.764,23.838C29.074,24.521 28.024,26.421 27.982,26.503L27.854,26.74L28.118,26.791C28.185,26.803 29.718,27.08 31.638,26.253C33.592,25.418 34.059,23.846 34.079,23.78L34.134,23.58L33.935,23.534C33.876,23.518 32.444,23.159 30.764,23.838ZM30.912,24.205C32.105,23.726 33.17,23.811 33.615,23.877C33.428,24.302 32.862,25.302 31.481,25.891C30.147,26.464 29.004,26.468 28.489,26.433C28.824,25.906 29.702,24.697 30.912,24.205Z" style="fill:rgb(21,130,117);fill-rule:nonzero;"/>
        <path id="_114230976" d="M34.29,20.577C32.597,21.236 31.442,23.12 31.395,23.202L31.243,23.451L31.532,23.498C31.599,23.506 33.127,23.74 35.051,22.937C37.012,22.121 37.493,20.612 37.512,20.549L37.575,20.354L37.38,20.299C37.325,20.285 35.979,19.913 34.29,20.577ZM34.433,20.944C35.616,20.483 36.623,20.569 37.051,20.635C36.852,21.049 36.279,21.997 34.898,22.571C33.584,23.12 32.448,23.156 31.918,23.132C32.296,22.597 33.232,21.415 34.433,20.944Z" style="fill:rgb(21,130,117);fill-rule:nonzero;"/>
        <path id="_48808752" d="M37.957,17.565C36.259,18.208 35,20.073 34.949,20.152L34.769,20.42L35.09,20.459C35.152,20.467 36.677,20.651 38.608,19.87C40.575,19.075 41.074,17.631 41.093,17.569L41.156,17.381L40.964,17.319C40.914,17.303 39.658,16.917 37.957,17.565ZM38.096,17.931C39.271,17.487 40.215,17.577 40.625,17.647C40.419,18.048 39.829,18.95 38.46,19.503C37.153,20.031 36.033,20.093 35.491,20.084C35.909,19.542 36.899,18.388 38.096,17.931Z" style="fill:rgb(21,130,117);fill-rule:nonzero;"/>
        <path id="_48137184" d="M41.682,14.865C39.981,15.493 38.62,17.342 38.561,17.42L38.354,17.698L38.702,17.733C38.764,17.741 40.286,17.877 42.22,17.116C44.198,16.34 44.708,14.962 44.728,14.904L44.795,14.716L44.608,14.654C44.561,14.634 43.39,14.237 41.682,14.865ZM41.818,15.236C42.981,14.81 43.867,14.896 44.256,14.97C44.042,15.356 43.445,16.21 42.076,16.749C40.785,17.256 39.681,17.342 39.123,17.346C39.58,16.799 40.628,15.676 41.818,15.236Z" style="fill:rgb(21,130,117);fill-rule:nonzero;"/>
        <path id="_82940240" d="M15.776,38.04C15.725,38.102 14.563,39.612 14.442,41.43C14.321,43.283 15.834,44.695 15.901,44.755L16.034,44.879L16.169,44.755C16.22,44.711 17.418,43.584 17.508,41.461C17.606,39.323 16.12,38.062 16.057,38.009L15.901,37.879L15.776,38.04ZM14.831,41.636C14.831,41.579 14.835,41.519 14.839,41.458C14.925,40.095 15.662,38.897 15.959,38.465C16.302,38.82 17.118,39.811 17.118,41.274C17.118,41.328 17.118,41.386 17.114,41.446C17.043,43.007 16.326,43.981 16.029,44.321C15.694,43.962 14.831,42.917 14.831,41.636Z" style="fill:rgb(21,130,117);fill-rule:nonzero;"/>
        <path id="_82893400" d="M18.136,33.967C18.096,34.01 17.149,35.055 16.747,36.554C16.692,36.76 16.649,36.974 16.622,37.2C16.404,38.996 17.699,40.467 17.757,40.529L17.882,40.674L18.031,40.549C18.085,40.506 19.306,39.444 19.556,37.38C19.805,35.297 18.476,34.01 18.416,33.959L18.273,33.818L18.136,33.966L18.136,33.967ZM16.993,37.607C16.993,37.49 17,37.373 17.016,37.253C17.039,37.046 17.078,36.847 17.129,36.659C17.418,35.583 18.019,34.744 18.288,34.404C18.573,34.74 19.189,35.622 19.189,36.878C19.189,37.022 19.181,37.179 19.161,37.334C18.982,38.836 18.233,39.768 17.921,40.104C17.64,39.734 16.993,38.759 16.993,37.607Z" style="fill:rgb(21,130,117);fill-rule:nonzero;"/>
        <path id="_82889776" d="M20.784,30.147C20.741,30.186 19.746,31.11 19.243,32.601C19.181,32.792 19.126,32.995 19.083,33.229C18.772,34.966 19.852,36.491 19.895,36.557L20.016,36.724L20.18,36.596C20.231,36.553 21.483,35.555 21.884,33.553C22.29,31.528 21.113,30.213 21.062,30.158L20.929,30.014L20.784,30.147ZM19.427,33.869C19.427,33.682 19.443,33.486 19.478,33.295C19.513,33.085 19.56,32.901 19.618,32.729C19.977,31.668 20.613,30.903 20.902,30.596C21.128,30.911 21.572,31.676 21.572,32.726C21.572,32.964 21.549,33.214 21.494,33.478C21.206,34.918 20.434,35.804 20.098,36.136C19.875,35.761 19.427,34.879 19.427,33.869Z" style="fill:rgb(21,130,117);fill-rule:nonzero;"/>
        <path id="_82869456" d="M23.694,26.577C23.648,26.612 22.61,27.42 22.001,28.899C21.931,29.069 21.869,29.269 21.815,29.499C21.404,31.177 22.259,32.761 22.298,32.827L22.403,33.022L22.587,32.89C22.641,32.854 23.917,31.914 24.475,29.98C25.036,28.013 24.014,26.667 23.972,26.612L23.851,26.456L23.694,26.577ZM22.103,30.436C22.103,30.162 22.13,29.873 22.196,29.593C22.247,29.382 22.306,29.202 22.368,29.047C22.797,28.009 23.464,27.315 23.773,27.033C23.941,27.322 24.24,27.958 24.24,28.813C24.24,29.137 24.201,29.491 24.093,29.87C23.694,31.247 22.899,32.09 22.54,32.414C22.384,32.059 22.103,31.302 22.103,30.436Z" style="fill:rgb(21,130,117);fill-rule:nonzero;"/>
        <path id="_82898896" d="M26.847,23.253C26.8,23.281 25.719,23.971 25.005,25.438C24.923,25.602 24.849,25.785 24.779,26.019C24.276,27.639 24.911,29.273 24.942,29.343L25.032,29.566L25.235,29.433C25.29,29.394 26.589,28.52 27.3,26.648C28.02,24.739 27.154,23.37 27.116,23.312L27.011,23.148L26.847,23.253ZM24.985,27.342C24.985,26.955 25.032,26.542 25.157,26.137C25.224,25.925 25.286,25.758 25.36,25.613C25.859,24.587 26.563,23.963 26.882,23.713C27.003,23.963 27.19,24.459 27.19,25.125C27.19,25.531 27.119,25.996 26.929,26.503C26.433,27.818 25.61,28.617 25.228,28.942C25.13,28.617 24.985,28.028 24.985,27.342Z" style="fill:rgb(21,130,117);fill-rule:nonzero;"/>
        <path id="_117735336" d="M30.221,20.171C30.174,20.195 29.055,20.764 28.224,22.219C28.138,22.379 28.056,22.555 27.971,22.777C27.369,24.337 27.791,26.024 27.811,26.093L27.877,26.351L28.104,26.21C28.157,26.179 29.483,25.363 30.346,23.553C31.224,21.708 30.514,20.315 30.482,20.257L30.392,20.084L30.221,20.171ZM28.048,24.642C28.048,24.119 28.114,23.502 28.337,22.917C28.419,22.714 28.489,22.555 28.571,22.414C29.144,21.411 29.874,20.854 30.213,20.635C30.287,20.842 30.389,21.201 30.389,21.697C30.389,22.164 30.295,22.741 29.987,23.386C29.39,24.642 28.544,25.395 28.138,25.703C28.095,25.461 28.048,25.087 28.048,24.642Z" style="fill:rgb(21,130,117);fill-rule:nonzero;"/>
        <path id="_47326760" d="M33.803,17.327C33.752,17.346 32.597,17.798 31.653,19.238C31.556,19.391 31.462,19.566 31.364,19.773C30.674,21.275 30.877,23.011 30.885,23.081L30.92,23.369L31.177,23.23C31.235,23.199 32.581,22.45 33.596,20.702C34.634,18.914 34.079,17.498 34.056,17.439L33.982,17.256L33.803,17.327ZM31.247,22.399C31.247,21.782 31.325,20.803 31.723,19.937C31.812,19.745 31.898,19.589 31.984,19.456C32.632,18.47 33.392,17.982 33.743,17.79C33.782,17.951 33.822,18.185 33.822,18.497C33.822,19.016 33.704,19.722 33.256,20.502C32.557,21.7 31.687,22.407 31.255,22.706C31.251,22.62 31.247,22.52 31.247,22.399Z" style="fill:rgb(21,130,117);fill-rule:nonzero;"/>
        <path id="_81988928" d="M37.575,14.72C37.524,14.732 36.334,15.072 35.272,16.496C35.164,16.64 35.054,16.808 34.953,16.998C34.165,18.443 34.153,20.229 34.153,20.307L34.157,20.623L34.437,20.483C34.501,20.452 35.874,19.761 37.04,18.076C38.225,16.355 37.832,14.916 37.816,14.857L37.761,14.666L37.575,14.72ZM35.301,17.19C35.393,17.014 35.491,16.867 35.589,16.73C36.314,15.762 37.106,15.336 37.473,15.18C37.481,15.274 37.493,15.383 37.493,15.528C37.493,16.058 37.364,16.909 36.713,17.854C35.921,18.993 35.027,19.656 34.566,19.949C34.609,19.368 34.758,18.177 35.301,17.19Z" style="fill:rgb(21,130,117);fill-rule:nonzero;"/>
        <path id="_82907120" d="M41.502,12.344C41.452,12.352 40.235,12.579 39.048,13.975C37.875,15.368 37.597,17.662 37.586,17.759L37.548,18.103L37.863,17.962C37.922,17.935 39.322,17.307 40.636,15.68C41.979,14.026 41.741,12.563 41.733,12.504L41.698,12.309L41.502,12.344ZM39.353,14.233C40.157,13.285 40.976,12.921 41.354,12.796C41.358,12.804 41.358,12.809 41.358,12.82C41.358,13.281 41.237,14.311 40.329,15.434C39.447,16.523 38.522,17.139 38.043,17.42C38.172,16.714 38.53,15.205 39.353,14.233Z" style="fill:rgb(21,130,117);fill-rule:nonzero;"/>
        <path id="_82162616" d="M3.878,32C3.878,41.587 9.062,50.805 17.41,56.069L17.757,56.283L18.007,55.959C18.077,55.869 18.105,55.78 18.105,55.701C18.105,55.494 17.929,55.335 17.831,55.242L17.348,54.777C15.623,52.823 15.163,50.969 15.163,49.545C15.163,47.969 15.729,46.916 15.776,46.837L15.928,46.556L15.717,46.318C12.187,42.383 10.326,37.434 10.326,32C10.326,20.045 20.048,10.323 32,10.323C35.324,10.323 38.51,11.052 41.475,12.497L41.784,12.649L46.137,7.678L45.658,7.409C41.503,5.096 36.779,3.875 32,3.875C16.49,3.875 3.878,16.492 3.878,32ZM4.767,32C4.767,16.983 16.985,4.767 32,4.767C36.439,4.767 40.828,5.868 44.725,7.932C44.152,8.584 41.9,11.159 41.549,11.552C38.553,10.148 35.344,9.43 32,9.43C19.556,9.43 9.428,19.555 9.428,32C9.428,37.552 11.309,42.62 14.863,46.685C14.656,47.157 14.293,48.191 14.293,49.561C14.293,50.692 14.554,52.05 15.355,53.494C8.765,48.246 4.767,40.263 4.767,32Z" style="fill:rgb(21,130,117);fill-rule:nonzero;"/>
        <path id="_49059128" d="M41.866,11.697C38.776,10.191 35.46,9.43 32,9.43C19.556,9.43 9.428,19.554 9.428,32C9.428,37.653 11.371,42.815 15.05,46.916L15.436,47.344L17.153,44.755L17.063,44.649C16.907,44.63 16.782,44.605 16.688,44.587C16.711,44.516 16.746,44.423 16.785,44.321C16.653,44.161 16.517,43.997 16.388,43.834C16.251,44.055 16.119,44.215 16.029,44.321C15.694,43.962 14.831,42.917 14.831,41.636C14.831,41.597 14.835,41.554 14.835,41.515C13.232,38.691 12.416,35.504 12.416,32C12.416,21.202 21.201,12.415 32,12.415C34.648,12.415 37.204,12.933 39.61,13.952C39.868,13.683 40.122,13.472 40.359,13.308C37.726,12.129 34.918,11.521 32,11.521C20.706,11.521 11.519,20.709 11.519,32C11.519,36.896 13.048,41.2 16.04,44.813C15.869,45.074 15.623,45.445 15.346,45.866C12.07,42.004 10.326,37.232 10.326,32C10.326,20.046 20.047,10.324 32,10.324C35.176,10.324 38.222,10.999 41.074,12.317C40.953,12.575 40.839,12.829 40.718,13.082C40.984,12.933 41.203,12.843 41.354,12.797C41.359,12.805 41.359,12.809 41.359,12.82C41.359,13.156 41.292,13.792 40.906,14.549L41.007,14.599L42.259,11.884L41.866,11.697Z" style="fill:rgb(21,130,117);fill-rule:nonzero;"/>
        <path id="_122255456" d="M41.663,7.268L39.505,10C39.704,10.066 39.899,10.136 40.094,10.211L42.236,7.503C42.048,7.421 41.858,7.343 41.663,7.268Z" style="fill:rgb(21,130,117);fill-rule:nonzero;"/>
        <path id="_111525640" d="M37.442,6.012L36.182,9.13C36.381,9.165 36.58,9.204 36.775,9.247L38.031,6.141C37.832,6.095 37.637,6.055 37.442,6.012Z" style="fill:rgb(21,130,117);fill-rule:nonzero;"/>
        <path id="_81748496" d="M32.418,5.451L32.109,8.756C32.308,8.756 32.508,8.759 32.702,8.762L33.014,5.466C32.815,5.462 32.616,5.454 32.418,5.451Z" style="fill:rgb(21,130,117);fill-rule:nonzero;"/>
        <path id="_48970056" d="M27.521,5.825L28.149,9.071C28.345,9.04 28.54,9.008 28.738,8.981L28.11,5.731C27.912,5.759 27.717,5.79 27.521,5.825Z" style="fill:rgb(21,130,117);fill-rule:nonzero;"/>
        <path id="_47284000" d="M22.774,7.096L24.26,10.078C24.447,10.011 24.635,9.949 24.826,9.886L23.336,6.898C23.149,6.965 22.961,7.03 22.774,7.096Z" style="fill:rgb(21,130,117);fill-rule:nonzero;"/>
        <path id="_48122368" d="M18.268,9.278L20.484,11.81C20.659,11.709 20.835,11.611 21.015,11.513L18.787,8.969C18.612,9.071 18.44,9.176 18.268,9.278Z" style="fill:rgb(21,130,117);fill-rule:nonzero;"/>
        <path id="_82943656" d="M14.176,12.333L16.974,14.276C17.129,14.143 17.289,14.014 17.45,13.881L14.632,11.927C14.481,12.059 14.325,12.197 14.176,12.333Z" style="fill:rgb(21,130,117);fill-rule:nonzero;"/>
        <path id="_111743952" d="M10.693,16.168L13.907,17.42C14.039,17.256 14.172,17.096 14.305,16.94L11.067,15.676C10.943,15.84 10.818,16.004 10.693,16.168Z" style="fill:rgb(21,130,117);fill-rule:nonzero;"/>
        <path id="_81670368" d="M8.005,20.635L11.464,21.118C11.562,20.928 11.664,20.744 11.769,20.561L8.278,20.073C8.184,20.26 8.09,20.448 8.005,20.635Z" style="fill:rgb(21,130,117);fill-rule:nonzero;"/>
        <path id="_82778632" d="M6.242,25.535L9.768,25.196C9.835,24.992 9.901,24.786 9.967,24.583L6.405,24.923C6.346,25.125 6.293,25.328 6.242,25.535Z" style="fill:rgb(21,130,117);fill-rule:nonzero;"/>
        <path id="_49035160" d="M5.477,30.666L8.89,29.48C8.914,29.261 8.941,29.043 8.968,28.824L5.515,30.025C5.501,30.236 5.489,30.451 5.477,30.665L5.477,30.666Z" style="fill:rgb(21,130,117);fill-rule:nonzero;"/>
        <path id="_82868520" d="M5.742,35.85L8.824,33.826C8.808,33.6 8.793,33.373 8.781,33.144L5.648,35.199C5.679,35.418 5.707,35.633 5.742,35.85Z" style="fill:rgb(21,130,117);fill-rule:nonzero;"/>
        <path id="_82947392" d="M7.057,40.923L9.557,38.168C9.495,37.938 9.44,37.704 9.385,37.473L6.831,40.287C6.905,40.502 6.979,40.712 7.057,40.923Z" style="fill:rgb(21,130,117);fill-rule:nonzero;"/>
        <path id="_82847744" d="M9.409,45.768L11.18,42.401C11.071,42.183 10.958,41.965 10.856,41.742L9.054,45.172C9.171,45.371 9.289,45.573 9.409,45.768Z" style="fill:rgb(21,130,117);fill-rule:nonzero;"/>
        <path id="_47020472" d="M12.424,49.806L13.373,45.909C13.216,45.702 13.06,45.491 12.913,45.281L11.949,49.264C12.105,49.448 12.265,49.626 12.424,49.806Z" style="fill:rgb(21,130,117);fill-rule:nonzero;"/>
        <path id="_48970168" d="M41.222,14.798C41.304,14.849 41.386,14.904 41.463,14.959C41.538,14.927 41.608,14.892 41.682,14.865C41.768,14.834 41.854,14.806 41.94,14.779C41.756,14.658 41.585,14.521 41.421,14.377C41.366,14.513 41.296,14.654 41.222,14.798Z" style="fill:rgb(21,130,117);fill-rule:nonzero;"/>
    </g>
</svg>
